<svg width="466.9020080566406" height="153.22799682617188" viewBox="0 0 466.902 153.228"
  xmlns="http://www.w3.org/2000/svg">
  <g id="svgGroup" stroke-linecap="round" fill-rule="nonzero" font-size="9pt" stroke="#000"
    stroke-width="0.5mm" fill="#000" style="stroke:#000;stroke-width:0.5mm;fill:#000">
    <path
      d="M 2.567 129.391 L 46.708 14.547 Q 48.075 11.031 49.247 11.91 A 3.101 3.101 0 0 1 49.931 12.65 Q 50.632 13.674 51.102 15.621 A 23.447 23.447 0 0 1 51.615 18.649 Q 51.775 20.159 51.785 21.842 A 37.811 37.811 0 0 1 51.786 22.067 A 27.225 27.225 0 0 1 51.702 24.28 Q 51.615 25.332 51.441 26.22 A 10.82 10.82 0 0 1 51.004 27.828 Q 44.754 42.672 38.407 57.613 Q 32.059 72.555 26.297 87.692 A 737.103 737.103 0 0 0 15.458 118.16 Q 10.379 133.492 6.864 149.313 A 7.471 7.471 0 0 1 6.121 149.724 Q 5.276 150.126 4.599 150.126 A 2.074 2.074 0 0 1 4.227 150.094 A 3.482 3.482 0 0 1 2.711 149.405 A 4.517 4.517 0 0 1 2.274 149.02 A 6.291 6.291 0 0 1 0.907 146.969 A 14.151 14.151 0 0 1 0.536 145.981 Q 0.333 145.37 0.223 144.82 A 5.311 5.311 0 0 1 0.071 144.07 Q -0.081 142.942 0.093 141.302 A 21.045 21.045 0 0 1 0.126 141.012 Q 0.419 138.57 0.907 136.031 A 55.414 55.414 0 0 1 1.386 133.78 Q 1.67 132.577 1.981 131.539 A 124.253 124.253 0 0 0 2.118 131.078 Q 2.562 129.577 2.567 129.394 A 0.146 0.146 0 0 0 2.567 129.391 Z"
      id="0" vector-effect="non-scaling-stroke" class="svg-elem-1"></path>
    <path
      d="M 58.358 149.118 Q 57.257 148.634 54.681 147.385 A 395.645 395.645 0 0 1 54.227 147.164 A 41.336 41.336 0 0 1 47.489 143.063 Q 45.041 141.227 43.732 139.272 A 10.007 10.007 0 0 1 43.094 138.18 Q 41.895 135.782 45.138 134.081 A 10.908 10.908 0 0 1 45.536 133.883 Q 47.684 135.836 51.493 138.57 A 40.036 40.036 0 0 0 54.999 140.834 Q 56.827 141.876 58.583 142.58 A 24.615 24.615 0 0 0 58.817 142.672 A 211.966 211.966 0 0 0 70.361 142.992 A 194.781 194.781 0 0 0 79.715 142.77 Q 89.872 142.281 99.54 140.231 Q 109.208 138.18 118.29 133.981 A 84.239 84.239 0 0 0 131.638 126.199 A 97.672 97.672 0 0 0 135.965 122.945 Q 144.944 115.433 148.164 109.037 A 21.031 21.031 0 0 0 148.563 108.199 Q 150.44 104.022 150.44 100.219 A 14.655 14.655 0 0 0 149.735 95.699 A 20.768 20.768 0 0 0 146.475 89.548 Q 144.823 87.36 142.514 85.305 A 36.267 36.267 0 0 0 142.118 84.957 A 72.292 72.292 0 0 0 134.956 79.54 A 93.791 93.791 0 0 0 128.446 75.582 A 173.958 173.958 0 0 0 114.333 68.584 A 195.06 195.06 0 0 0 111.551 67.379 A 1386.759 1386.759 0 0 1 98.514 61.776 A 1219.574 1219.574 0 0 1 94.364 59.957 A 262.241 262.241 0 0 1 86.551 56.368 A 201.306 201.306 0 0 1 79.52 52.828 Q 75.041 50.457 72.161 47.996 A 20.787 20.787 0 0 1 69.754 45.602 Q 69.031 42.526 72.498 38.444 A 24.359 24.359 0 0 1 73.075 37.789 A 43.377 43.377 0 0 1 76.59 34.379 Q 78.599 32.626 81.061 30.831 A 90.077 90.077 0 0 1 84.403 28.512 A 147.506 147.506 0 0 1 92.167 23.727 A 197.407 197.407 0 0 1 101.004 18.942 A 222.508 222.508 0 0 1 120.243 10.25 A 232.188 232.188 0 0 1 134.708 5.05 A 202.095 202.095 0 0 1 139.383 3.61 Q 146.939 1.383 153.005 0.516 A 60.186 60.186 0 0 1 155.692 0.192 A 42.546 42.546 0 0 1 157.596 0.048 Q 161.934 -0.178 164.823 0.662 A 10.806 10.806 0 0 1 166.434 1.266 A 5.268 5.268 0 0 1 168.083 2.444 Q 169.829 4.343 168.973 7.906 Q 167.606 8.102 161.942 9.664 A 840.163 840.163 0 0 0 157.351 10.946 Q 153.238 12.106 148.172 13.57 A 438.589 438.589 0 0 0 139.725 16.11 A 563.582 563.582 0 0 0 130.594 19.039 A 523.188 523.188 0 0 0 111.942 25.582 A 298.862 298.862 0 0 0 101.001 29.893 A 244.201 244.201 0 0 0 94.95 32.516 A 102.172 102.172 0 0 0 89.971 34.91 Q 87.645 36.112 85.723 37.29 A 42.987 42.987 0 0 0 82.645 39.352 A 25.629 25.629 0 0 0 80.677 40.95 Q 78.794 42.655 78.065 44.192 A 4.813 4.813 0 0 0 77.665 45.406 A 2.437 2.437 0 0 0 77.626 45.836 Q 77.626 48.288 82.807 50.083 A 26.279 26.279 0 0 0 82.84 50.094 Q 101.554 55.734 115.01 61.836 A 130.853 130.853 0 0 1 127.665 68.356 Q 138.192 74.596 144.691 80.919 A 44.454 44.454 0 0 1 150.614 87.887 A 35.24 35.24 0 0 1 154.069 94.281 Q 156.746 100.867 155.692 107.32 Q 154.129 116.891 147.196 125.094 A 59.452 59.452 0 0 1 137.629 134.07 A 78.218 78.218 0 0 1 129.129 139.645 A 105.329 105.329 0 0 1 105.594 149.508 A 96.182 96.182 0 0 1 80.79 153.219 A 71.232 71.232 0 0 1 79.668 153.228 Q 67.952 153.228 58.817 149.313 A 15.223 15.223 0 0 1 58.358 149.118 Z"
      id="1" vector-effect="non-scaling-stroke" class="svg-elem-2"></path>
    <path
      d="M 174.217 146.274 Q 169.12 142.808 167.02 137.887 A 29.856 29.856 0 0 1 164.639 126.046 A 34.832 34.832 0 0 1 164.872 122.067 A 56.767 56.767 0 0 1 168.126 108.732 A 66.465 66.465 0 0 1 169.657 104.977 A 145.768 145.768 0 0 1 173.539 96.871 A 110.26 110.26 0 0 1 177.567 89.742 A 69.541 69.541 0 0 1 178.396 88.365 Q 179.706 86.235 182.072 82.61 A 605.816 605.816 0 0 1 182.645 81.735 A 2972.656 2972.656 0 0 1 186.478 75.9 A 3541.749 3541.749 0 0 1 190.555 69.723 Q 194.754 63.375 198.563 57.809 A 942.699 942.699 0 0 1 200.302 55.276 Q 202.497 52.089 203.671 50.457 A 86.939 86.939 0 0 1 203.934 50.094 A 68.269 68.269 0 0 1 206.347 39.692 Q 208.11 34.216 210.74 29.877 A 36.251 36.251 0 0 1 213.309 26.168 A 43.925 43.925 0 0 1 219.817 19.458 A 32.902 32.902 0 0 1 229.227 13.961 A 32.912 32.912 0 0 1 240.83 11.831 A 34.232 34.232 0 0 1 247.489 12.496 A 33.066 33.066 0 0 1 263.895 20.895 A 34.011 34.011 0 0 1 271.406 31.301 A 45.449 45.449 0 0 1 274.051 38.375 Q 277.176 49.313 273.563 63.961 A 80.611 80.611 0 0 1 269.343 76.318 Q 266.776 82.318 263.077 88.808 A 169.713 169.713 0 0 1 258.231 96.774 A 152.558 152.558 0 0 1 247.904 110.809 Q 238.016 122.848 223.856 136.031 A 54.554 54.554 0 0 1 218.998 140.114 A 70.171 70.171 0 0 1 214.579 143.16 A 57.161 57.161 0 0 1 203.251 148.727 A 43.525 43.525 0 0 1 191.239 151.266 A 26.617 26.617 0 0 1 189.525 151.322 A 23.406 23.406 0 0 1 179.911 149.313 A 32.44 32.44 0 0 1 174.217 146.274 Z M 173.075 133.883 Q 175.028 142.672 180.497 144.82 A 13.389 13.389 0 0 0 185.142 145.726 Q 188.623 145.801 192.712 144.297 A 30.793 30.793 0 0 0 193.387 144.039 A 47.619 47.619 0 0 0 199.643 140.982 Q 202.604 139.276 205.752 137.006 A 96.737 96.737 0 0 0 209.598 134.078 Q 218.387 127.047 227.176 117.574 A 212.529 212.529 0 0 0 242.969 98.354 A 233.126 233.126 0 0 0 243.973 96.969 A 217.713 217.713 0 0 0 254.629 80.723 A 188.559 188.559 0 0 0 257.938 74.899 A 133.26 133.26 0 0 0 263.468 63.553 A 102.164 102.164 0 0 0 267.02 54 A 57.444 57.444 0 0 0 268.526 48.218 Q 269.82 41.825 269.071 36.715 A 16.573 16.573 0 0 0 267.246 31.088 A 14.623 14.623 0 0 0 262.04 25.68 A 15.444 15.444 0 0 0 257.857 23.918 Q 252.362 22.441 243.778 23.531 A 115.918 115.918 0 0 0 241.349 25.71 Q 237.43 29.318 231.864 34.957 Q 224.442 42.477 216.044 52.047 A 369.701 369.701 0 0 0 203.446 67.226 A 420.064 420.064 0 0 0 199.247 72.653 A 232.489 232.489 0 0 0 187.748 89.15 A 203.802 203.802 0 0 0 184.403 94.625 A 121.905 121.905 0 0 0 178.437 106.026 A 94.022 94.022 0 0 0 174.637 115.719 Q 171.407 125.601 172.983 133.448 A 24.926 24.926 0 0 0 173.075 133.883 Z"
      id="2" vector-effect="non-scaling-stroke" class="svg-elem-3"></path>
    <path
      d="M 276.712 148.849 A 38.928 38.928 0 0 1 274.93 148.238 A 21.741 21.741 0 0 1 271.415 146.578 A 9.585 9.585 0 0 1 268.583 144.039 A 5.857 5.857 0 0 1 267.435 140.937 A 7.441 7.441 0 0 1 267.411 140.328 Q 267.411 139.352 271.024 139.645 A 77.019 77.019 0 0 1 274.373 139.995 Q 276.645 140.279 279.227 140.719 A 843.163 843.163 0 0 0 287.035 142.011 A 760.784 760.784 0 0 0 288.114 142.184 A 75.159 75.159 0 0 0 289.674 142.416 Q 292.677 142.829 293.778 142.672 A 58.43 58.43 0 0 0 314.969 136.227 A 63.383 63.383 0 0 0 332.45 122.848 A 58.42 58.42 0 0 0 343.876 104.488 A 44.682 44.682 0 0 0 346.973 88.098 A 47.7 47.7 0 0 0 346.708 83.102 A 16.957 16.957 0 0 0 344.329 79.491 A 11.822 11.822 0 0 0 338.504 75.778 A 21.994 21.994 0 0 0 332.768 74.994 Q 329.987 74.972 326.981 75.582 A 59.082 59.082 0 0 0 318.61 77.963 A 72.016 72.016 0 0 0 314.09 79.781 A 237.656 237.656 0 0 0 306.171 83.444 A 195.526 195.526 0 0 0 301.786 85.641 Q 296.122 88.57 292.118 90.621 Q 288.718 92.363 287.36 92.062 A 1.222 1.222 0 0 1 286.942 91.891 A 16.327 16.327 0 0 1 285.293 90.607 Q 284.519 89.913 283.983 89.209 A 6.204 6.204 0 0 1 283.036 87.496 A 8.69 8.69 0 0 1 282.555 84.621 Q 282.555 83.688 282.743 82.711 A 19.929 19.929 0 0 1 283.767 79.214 A 24.174 24.174 0 0 1 284.501 77.535 A 86.704 86.704 0 0 0 286.35 73.415 A 97.062 97.062 0 0 0 286.942 71.969 A 7.64 7.64 0 0 1 287.06 71.65 Q 287.349 70.905 288.202 68.901 A 446.187 446.187 0 0 1 288.602 67.965 Q 290.067 64.547 292.02 60.153 A 114.474 114.474 0 0 1 296.219 51.656 A 58.762 58.762 0 0 1 297.51 49.41 Q 298.987 46.975 300.223 45.602 A 14.426 14.426 0 0 1 303.581 43.153 Q 305.274 42.236 307.411 41.535 A 35.689 35.689 0 0 1 311.258 40.524 Q 318.778 38.961 327.372 38.18 A 839.774 839.774 0 0 1 344.266 36.813 Q 352.567 36.227 357.84 34.469 A 16.862 16.862 0 0 1 359.09 34.103 Q 362.799 33.178 364.481 34.86 Q 366.434 36.813 364.872 39.938 Q 363.461 42.758 358.869 45.579 A 37.812 37.812 0 0 1 357.84 46.188 Q 354.123 48.312 348.331 49.353 A 60.125 60.125 0 0 1 342.411 50.094 A 35.057 35.057 0 0 0 341.372 50.112 Q 339.75 50.161 336.938 50.342 A 308.545 308.545 0 0 0 336.258 50.387 Q 331.864 50.68 326.883 51.07 Q 321.903 51.461 317.508 51.754 Q 313.462 52.024 311.651 52.045 A 25.066 25.066 0 0 1 311.356 52.047 A 23.334 23.334 0 0 0 309.983 53.21 Q 308.793 54.293 307.45 55.758 Q 305.301 58.102 303.544 60.836 A 28.779 28.779 0 0 0 300.711 66.5 Q 300.016 68.396 300.016 70.128 A 8.161 8.161 0 0 0 300.223 71.969 A 21.203 21.203 0 0 0 304.74 72.457 A 21.886 21.886 0 0 0 309.305 71.969 Q 313.895 70.992 318.485 69.625 Q 323.075 68.258 327.86 67.281 A 22.002 22.002 0 0 1 332.271 66.838 Q 334.786 66.838 337.377 67.399 A 26.593 26.593 0 0 1 337.723 67.477 Q 347.684 69.625 352.665 74.899 A 20.779 20.779 0 0 1 358.426 87.106 A 26.48 26.48 0 0 1 358.591 90.073 Q 358.591 95.725 356.278 102.047 A 60.095 60.095 0 0 1 350.957 112.919 A 72.148 72.148 0 0 1 347.684 117.77 Q 342.02 125.485 334.208 132.32 Q 326.395 139.156 317.215 143.746 A 69.667 69.667 0 0 1 298.075 150.094 A 46.628 46.628 0 0 1 289.958 150.813 A 45.962 45.962 0 0 1 278.348 149.313 A 28.618 28.618 0 0 1 276.712 148.849 Z"
      id="3" vector-effect="non-scaling-stroke" class="svg-elem-4"></path>
    <path
      d="M 428.348 71.969 L 428.348 78.61 A 134.335 134.335 0 0 1 432.994 78.339 Q 442.936 77.939 449.697 79.312 A 34.724 34.724 0 0 1 452.762 80.074 Q 458.341 81.748 461.677 84.444 A 13.855 13.855 0 0 1 464.774 87.887 A 14.01 14.01 0 0 1 466.901 95.442 Q 466.901 96.9 466.637 98.447 A 21.365 21.365 0 0 1 466.336 99.899 Q 464.834 106.084 460.135 112.589 A 55.861 55.861 0 0 1 459.11 113.961 A 72.951 72.951 0 0 1 452.314 121.557 A 98.405 98.405 0 0 1 444.852 128.121 A 95.889 95.889 0 0 1 428.327 138.668 A 108.379 108.379 0 0 1 425.321 140.133 A 107.761 107.761 0 0 1 402.274 147.848 A 80.496 80.496 0 0 1 385.232 149.673 A 82.072 82.072 0 0 1 377.567 149.313 A 1.468 1.468 0 0 1 377.351 149.175 Q 376.984 148.901 376.395 148.238 Q 375.657 147.408 375.442 147.014 A 1.422 1.422 0 0 1 375.419 146.969 A 18.598 18.598 0 0 1 374.759 146.028 A 23.412 23.412 0 0 1 374.247 145.211 A 11.077 11.077 0 0 1 373.741 144.273 A 8.114 8.114 0 0 1 373.368 143.356 Q 373.242 142.979 373.242 142.62 A 2.044 2.044 0 0 1 373.465 141.695 A 1.747 1.747 0 0 1 373.86 141.193 Q 374.381 140.717 375.419 140.328 A 11.332 11.332 0 0 1 378.413 139.938 A 13.382 13.382 0 0 1 380.008 140.035 A 36.947 36.947 0 0 1 383.619 140.658 A 43.134 43.134 0 0 1 385.086 141.012 A 198.365 198.365 0 0 0 390.262 142.281 A 16.964 16.964 0 0 0 393.057 142.693 Q 393.512 142.721 393.961 142.721 A 14.253 14.253 0 0 0 395.145 142.672 A 17.973 17.973 0 0 0 397.738 142.205 Q 400.482 141.524 404.266 139.945 A 91.785 91.785 0 0 0 406.961 138.766 A 149.177 149.177 0 0 0 414.92 134.835 A 194.438 194.438 0 0 0 423.368 130.074 A 189.098 189.098 0 0 0 440.36 118.649 A 102.214 102.214 0 0 0 446.898 113.314 Q 450.843 109.797 453.739 106.344 A 34.564 34.564 0 0 0 456.341 102.844 Q 457.536 100.985 458.238 99.239 A 13.338 13.338 0 0 0 459.208 95.309 Q 459.598 90.328 452.567 87.399 A 13.547 13.547 0 0 0 451.096 87.24 Q 448.572 87.099 445.166 87.72 A 45.195 45.195 0 0 0 443.387 88.082 A 169.833 169.833 0 0 0 436.078 89.898 A 202.021 202.021 0 0 0 431.473 91.207 L 418.973 94.918 A 83.074 83.074 0 0 1 414.505 96.117 Q 412.293 96.642 410.319 96.958 A 42.015 42.015 0 0 1 408.036 97.262 A 22.128 22.128 0 0 1 406.82 97.356 Q 403.912 97.498 401.991 96.738 A 6.311 6.311 0 0 1 400.907 96.188 Q 398.653 94.745 399.479 90.473 A 16.757 16.757 0 0 1 399.637 89.742 A 151.559 151.559 0 0 1 401.023 88.168 Q 403.275 85.641 406.571 82.125 A 283.265 283.265 0 0 0 413.273 74.709 A 326.256 326.256 0 0 0 415.555 72.067 A 174.727 174.727 0 0 0 424.247 61.031 Q 428.348 55.367 430.497 50.094 L 427.469 50.875 Q 425.388 51.412 422.661 52.088 A 880.437 880.437 0 0 1 420.047 52.731 A 118.751 118.751 0 0 1 412.058 54.386 A 131.802 131.802 0 0 1 410.868 54.586 Q 406.756 55.258 403.437 55.352 A 37.46 37.46 0 0 1 402.372 55.367 A 18.739 18.739 0 0 1 400.545 55.285 Q 398.697 55.103 397.547 54.522 A 4.346 4.346 0 0 1 397.001 54.195 A 1.76 1.76 0 0 1 396.493 53.664 Q 395.862 52.608 397.072 50.702 A 11.004 11.004 0 0 1 397.489 50.094 A 1.65 1.65 0 0 1 397.749 49.816 Q 398.557 49.087 401.493 47.262 A 65.785 65.785 0 0 1 404.45 45.536 Q 407.12 44.064 410.477 42.477 A 187.359 187.359 0 0 1 418.232 39.032 A 220.137 220.137 0 0 1 422.001 37.496 Q 428.153 35.055 433.524 34.078 A 32.539 32.539 0 0 1 435.94 33.728 Q 438.485 33.46 440.537 33.712 A 12.841 12.841 0 0 1 442.411 34.078 A 5.158 5.158 0 0 1 444.435 35.119 Q 445.458 36.002 445.865 37.465 A 7.678 7.678 0 0 1 446.122 39.156 A 8.196 8.196 0 0 1 446.131 39.546 Q 446.131 42.824 443.666 48.337 A 65.268 65.268 0 0 1 442.313 51.168 A 71.979 71.979 0 0 1 439.411 56.304 Q 436.303 61.358 431.469 67.856 A 282.839 282.839 0 0 1 428.348 71.969 Z"
      id="4" vector-effect="non-scaling-stroke" class="svg-elem-5"></path>
  </g>
</svg>